<?xml version="1.0" encoding="UTF-8" standalone="no"?>
<!-- Created with Inkscape (http://www.inkscape.org/) -->

<svg
   xmlns:dc="http://purl.org/dc/elements/1.1/"
   xmlns:cc="http://creativecommons.org/ns#"
   xmlns:rdf="http://www.w3.org/1999/02/22-rdf-syntax-ns#"
   xmlns:svg="http://www.w3.org/2000/svg"
   xmlns="http://www.w3.org/2000/svg"
   xmlns:sodipodi="http://sodipodi.sourceforge.net/DTD/sodipodi-0.dtd"
   xmlns:inkscape="http://www.inkscape.org/namespaces/inkscape"
   width="210mm"
   height="297mm"
   viewBox="0 0 744.09448819 1052.3622047"
   id="svg3531"
   version="1.1"
   inkscape:version="0.91 r13725"
   sodipodi:docname="foundry10_education.svg">
  <defs
     id="defs3533" />
  <sodipodi:namedview
     id="base"
     pagecolor="#ffffff"
     bordercolor="#666666"
     borderopacity="1.0"
     inkscape:pageopacity="0.0"
     inkscape:pageshadow="2"
     inkscape:zoom="1.4"
     inkscape:cx="353.69469"
     inkscape:cy="771.54877"
     inkscape:document-units="px"
     inkscape:current-layer="layer1"
     showgrid="false"
     inkscape:window-width="1440"
     inkscape:window-height="1748"
     inkscape:window-x="1440"
     inkscape:window-y="24"
     inkscape:window-maximized="0" />
  <metadata
     id="metadata3536">
    <rdf:RDF>
      <cc:Work
         rdf:about="">
        <dc:format>image/svg+xml</dc:format>
        <dc:type
           rdf:resource="http://purl.org/dc/dcmitype/StillImage" />
        <dc:title></dc:title>
      </cc:Work>
    </rdf:RDF>
  </metadata>
  <g
     inkscape:label="Layer 1"
     inkscape:groupmode="layer"
     id="layer1">
    <path
       inkscape:connector-curvature="0"
       style="opacity:1;fill:#ff6600;fill-opacity:1"
       d="M 342.48068,38.903603 A 253.19717,253.19717 0 0 0 124.14386,289.37727 253.19717,253.19717 0 0 0 377.33257,542.58045 253.19717,253.19717 0 0 0 532.84635,488.83066 L 471.84401,427.82604 A 167.1532,167.1532 0 0 1 378.19644,456.70828 167.1532,167.1532 0 0 1 211.0498,289.54487 167.1532,167.1532 0 0 1 342.48068,126.47281 l 0,-87.569207 z m 73.69942,0.46216 0,87.584427 a 167.1532,167.1532 0 0 1 129.17848,162.59468 167.1532,167.1532 0 0 1 -23.1111,84.45269 l 61.49573,61.482 A 253.19717,253.19717 0 0 0 630.53652,289.37727 253.19717,253.19717 0 0 0 416.1801,39.365763 Z"
       id="path3903-8-4-4-0-9-5" />
    <circle
       style="opacity:1;fill:#ff9955;fill-opacity:1"
       id="path3903-8-6-2-6"
       cx="379.58261"
       cy="289.62073"
       r="120.94458" />
    <circle
       style="opacity:1;fill:#ffffff;fill-opacity:1"
       id="path3903-8-4-8-6-1"
       cx="380.19556"
       cy="289.47198"
       r="72.364319" />
  </g>
</svg>
