<?xml version="1.0" encoding="UTF-8" standalone="no"?>
<!-- Created with Inkscape (http://www.inkscape.org/) -->

<svg
   xmlns:dc="http://purl.org/dc/elements/1.1/"
   xmlns:cc="http://creativecommons.org/ns#"
   xmlns:rdf="http://www.w3.org/1999/02/22-rdf-syntax-ns#"
   xmlns:svg="http://www.w3.org/2000/svg"
   xmlns="http://www.w3.org/2000/svg"
   xmlns:sodipodi="http://sodipodi.sourceforge.net/DTD/sodipodi-0.dtd"
   xmlns:inkscape="http://www.inkscape.org/namespaces/inkscape"
   width="210mm"
   height="297mm"
   viewBox="0 0 744.09448819 1052.3622047"
   id="svg2"
   version="1.1"
   inkscape:version="0.91 r13725"
   sodipodi:docname="grid_design_00.svg">
  <defs
     id="defs4" />
  <sodipodi:namedview
     id="base"
     pagecolor="#ffffff"
     bordercolor="#666666"
     borderopacity="1.0"
     inkscape:pageopacity="0.0"
     inkscape:pageshadow="2"
     inkscape:zoom="16"
     inkscape:cx="411.37502"
     inkscape:cy="79.584318"
     inkscape:document-units="px"
     inkscape:current-layer="layer1"
     showgrid="false"
     showguides="false"
     inkscape:window-width="2880"
     inkscape:window-height="1776"
     inkscape:window-x="0"
     inkscape:window-y="24"
     inkscape:window-maximized="1" />
  <metadata
     id="metadata7">
    <rdf:RDF>
      <cc:Work
         rdf:about="">
        <dc:format>image/svg+xml</dc:format>
        <dc:type
           rdf:resource="http://purl.org/dc/dcmitype/StillImage" />
        <dc:title></dc:title>
      </cc:Work>
    </rdf:RDF>
  </metadata>
  <g
     inkscape:label="Layer 1"
     inkscape:groupmode="layer"
     id="layer1">
    <rect
       style="opacity:1;fill:#ff0000;fill-opacity:1"
       id="rect3352"
       width="765.71429"
       height="1073.5714"
       x="-700.47516"
       y="-19.11713" />
    <path
       style="opacity:1;fill:#1a1a1a;fill-opacity:1"
       d="m 18.315252,564.13584 0,-536.42856 382.499988,0 382.50001,0 0,536.42856 0,536.42856 -382.50001,0 -382.499988,0 0,-536.42856 z"
       id="path3354"
       inkscape:connector-curvature="0" />
    <circle
       style="opacity:1;fill:#ff6600;fill-opacity:1"
       id="path3356"
       cx="227.14285"
       cy="315.93362"
       r="15.714286" />
    <circle
       style="opacity:1;fill:#ff6600;fill-opacity:1"
       id="path3356-3"
       cx="243.57143"
       cy="331.64792"
       r="15.714286" />
    <path
       style="opacity:1;fill:#ff6600;fill-opacity:1"
       d="m 222.85714,494.50419 a 56.428571,56.428571 0 0 0 -56.42857,56.42857 56.428571,56.428571 0 0 0 56.42857,56.42857 56.428571,56.428571 0 0 0 56.42857,-56.42857 56.428571,56.428571 0 0 0 -56.42857,-56.42857 z m 0.16135,15.15548 a 41.112244,41.112244 0 0 1 41.11174,41.11262 41.112244,41.112244 0 0 1 -41.11174,41.11174 41.112244,41.112244 0 0 1 -41.11262,-41.11174 41.112244,41.112244 0 0 1 41.11262,-41.11262 z"
       id="path3373"
       inkscape:connector-curvature="0" />
    <path
       style="opacity:1;fill:#ff7f2a;fill-opacity:1"
       d="M 223.21428,506.64793 A 43.214285,43.214285 0 0 0 180,549.86221 a 43.214285,43.214285 0 0 0 43.21428,43.21429 43.214285,43.214285 0 0 0 43.21429,-43.21429 43.214285,43.214285 0 0 0 -43.21429,-43.21428 z m 0.12357,11.60641 a 31.484693,31.484693 0 0 1 31.48431,31.48498 31.484693,31.484693 0 0 1 -31.48431,31.48431 31.484693,31.484693 0 0 1 -31.48498,-31.48431 31.484693,31.484693 0 0 1 31.48498,-31.48498 z"
       id="path3373-6"
       inkscape:connector-curvature="0" />
    <path
       style="opacity:1;fill:#ff9955;fill-opacity:1"
       d="m 223.57143,518.07649 a 31.785714,31.785714 0 0 0 -31.78571,31.78571 31.785714,31.785714 0 0 0 31.78571,31.78572 31.785714,31.785714 0 0 0 31.78572,-31.78572 31.785714,31.785714 0 0 0 -31.78572,-31.78571 z m 0.0909,8.53695 a 23.158162,23.158162 0 0 1 23.15788,23.15837 23.158162,23.158162 0 0 1 -23.15788,23.15788 23.158162,23.158162 0 0 1 -23.15837,-23.15788 23.158162,23.158162 0 0 1 23.15837,-23.15837 z"
       id="path3373-6-7"
       inkscape:connector-curvature="0" />
    <path
       style="opacity:1;fill:#ff6600;fill-opacity:1"
       d="m 590.43416,396.40809 a 21.073231,21.073231 0 0 0 -21.07323,21.07323 21.073231,21.073231 0 0 0 21.07323,21.07323 21.073231,21.073231 0 0 0 21.07323,-21.07323 21.073231,21.073231 0 0 0 -21.07323,-21.07323 z m 0.0603,5.65981 a 15.353354,15.353354 0 0 1 15.35316,15.35349 15.353354,15.353354 0 0 1 -15.35316,15.35317 15.353354,15.353354 0 0 1 -15.3535,-15.35317 15.353354,15.353354 0 0 1 15.3535,-15.35349 z"
       id="path3373-5"
       inkscape:connector-curvature="0" />
    <path
       style="opacity:1;fill:#ff7f2a;fill-opacity:1"
       d="m 590.56753,400.94317 a 16.138361,16.138361 0 0 0 -16.13835,16.13835 16.138361,16.138361 0 0 0 16.13835,16.13837 16.138361,16.138361 0 0 0 16.13837,-16.13837 16.138361,16.138361 0 0 0 -16.13837,-16.13835 z m 0.0462,4.33441 a 11.757948,11.757948 0 0 1 11.75781,11.75805 11.757948,11.757948 0 0 1 -11.75781,11.75781 11.757948,11.757948 0 0 1 -11.75805,-11.75781 11.757948,11.757948 0 0 1 11.75805,-11.75805 z"
       id="path3373-6-3"
       inkscape:connector-curvature="0" />
    <path
       style="opacity:1;fill:#ff9955;fill-opacity:1"
       d="m 590.70091,405.21116 a 11.870364,11.870364 0 0 0 -11.87036,11.87036 11.870364,11.870364 0 0 0 11.87036,11.87037 11.870364,11.870364 0 0 0 11.87037,-11.87037 11.870364,11.870364 0 0 0 -11.87037,-11.87036 z m 0.034,3.18812 a 8.648408,8.648408 0 0 1 8.6483,8.64848 8.648408,8.648408 0 0 1 -8.6483,8.64831 8.648408,8.648408 0 0 1 -8.64849,-8.64831 8.648408,8.648408 0 0 1 8.64849,-8.64848 z"
       id="path3373-6-7-5"
       inkscape:connector-curvature="0" />
    <path
       style="opacity:1;fill:#ff6600;fill-opacity:1"
       d="m 475.27677,395.39794 a 21.073231,21.073231 0 0 0 -21.07323,21.07323 21.073231,21.073231 0 0 0 21.07323,21.07323 21.073231,21.073231 0 0 0 21.07323,-21.07323 21.073231,21.073231 0 0 0 -21.07323,-21.07323 z m 0.0603,5.65981 a 15.353354,15.353354 0 0 1 15.35316,15.35349 15.353354,15.353354 0 0 1 -15.35316,15.35317 15.353354,15.353354 0 0 1 -15.3535,-15.35317 15.353354,15.353354 0 0 1 15.3535,-15.35349 z"
       id="path3373-5-6"
       inkscape:connector-curvature="0" />
    <path
       style="opacity:1;fill:#ff7f2a;fill-opacity:1"
       d="m 475.41014,399.93302 a 16.138361,16.138361 0 0 0 -16.13835,16.13835 16.138361,16.138361 0 0 0 16.13835,16.13837 16.138361,16.138361 0 0 0 16.13837,-16.13837 16.138361,16.138361 0 0 0 -16.13837,-16.13835 z m 0.0462,4.33441 a 11.757948,11.757948 0 0 1 11.75781,11.75805 11.757948,11.757948 0 0 1 -11.75781,11.75781 11.757948,11.757948 0 0 1 -11.75805,-11.75781 11.757948,11.757948 0 0 1 11.75805,-11.75805 z"
       id="path3373-6-3-2"
       inkscape:connector-curvature="0" />
    <path
       style="opacity:1;fill:#ff9955;fill-opacity:1"
       d="m 475.54352,404.20101 a 11.870364,11.870364 0 0 0 -11.87036,11.87036 11.870364,11.870364 0 0 0 11.87036,11.87037 11.870364,11.870364 0 0 0 11.87037,-11.87037 11.870364,11.870364 0 0 0 -11.87037,-11.87036 z m 0.034,3.18812 a 8.648408,8.648408 0 0 1 8.6483,8.64848 8.648408,8.648408 0 0 1 -8.6483,8.64831 8.648408,8.648408 0 0 1 -8.64849,-8.64831 8.648408,8.648408 0 0 1 8.64849,-8.64848 z"
       id="path3373-6-7-5-9"
       inkscape:connector-curvature="0" />
    <path
       style="opacity:1;fill:#ff6600;fill-opacity:1"
       d="m 533.86562,310.04005 a 21.073231,21.073231 0 0 0 -21.07323,21.07323 21.073231,21.073231 0 0 0 21.07323,21.07323 21.073231,21.073231 0 0 0 21.07323,-21.07323 21.073231,21.073231 0 0 0 -21.07323,-21.07323 z m 0.0603,5.65981 a 15.353354,15.353354 0 0 1 15.35316,15.35349 15.353354,15.353354 0 0 1 -15.35316,15.35317 15.353354,15.353354 0 0 1 -15.3535,-15.35317 15.353354,15.353354 0 0 1 15.3535,-15.35349 z"
       id="path3373-5-6-1"
       inkscape:connector-curvature="0" />
    <path
       style="opacity:1;fill:#ff7f2a;fill-opacity:1"
       d="m 533.99899,314.57513 a 16.138361,16.138361 0 0 0 -16.13835,16.13835 16.138361,16.138361 0 0 0 16.13835,16.13837 16.138361,16.138361 0 0 0 16.13837,-16.13837 16.138361,16.138361 0 0 0 -16.13837,-16.13835 z m 0.0462,4.33441 a 11.757948,11.757948 0 0 1 11.75781,11.75805 11.757948,11.757948 0 0 1 -11.75781,11.75781 11.757948,11.757948 0 0 1 -11.75805,-11.75781 11.757948,11.757948 0 0 1 11.75805,-11.75805 z"
       id="path3373-6-3-2-2"
       inkscape:connector-curvature="0" />
    <path
       style="opacity:1;fill:#ff9955;fill-opacity:1"
       d="m 534.13237,318.84312 a 11.870364,11.870364 0 0 0 -11.87036,11.87036 11.870364,11.870364 0 0 0 11.87036,11.87037 11.870364,11.870364 0 0 0 11.87037,-11.87037 11.870364,11.870364 0 0 0 -11.87037,-11.87036 z m 0.034,3.18812 a 8.648408,8.648408 0 0 1 8.6483,8.64848 8.648408,8.648408 0 0 1 -8.6483,8.64831 8.648408,8.648408 0 0 1 -8.64849,-8.64831 8.648408,8.648408 0 0 1 8.64849,-8.64848 z"
       id="path3373-6-7-5-9-7"
       inkscape:connector-curvature="0" />
    <path
       style="opacity:1;fill:#ff6600;fill-opacity:1"
       d="m 646.49762,482.01852 a 21.073231,21.073231 0 0 0 -21.07323,21.07323 21.073231,21.073231 0 0 0 21.07323,21.07323 21.073231,21.073231 0 0 0 21.07323,-21.07323 21.073231,21.073231 0 0 0 -21.07323,-21.07323 z m 0.0603,5.65981 a 15.353354,15.353354 0 0 1 15.35316,15.35349 15.353354,15.353354 0 0 1 -15.35316,15.35317 15.353354,15.353354 0 0 1 -15.3535,-15.35317 15.353354,15.353354 0 0 1 15.3535,-15.35349 z"
       id="path3373-5-60"
       inkscape:connector-curvature="0" />
    <path
       style="opacity:1;fill:#ff7f2a;fill-opacity:1"
       d="m 646.63099,486.5536 a 16.138361,16.138361 0 0 0 -16.13835,16.13835 16.138361,16.138361 0 0 0 16.13835,16.13837 16.138361,16.138361 0 0 0 16.13837,-16.13837 16.138361,16.138361 0 0 0 -16.13837,-16.13835 z m 0.0462,4.33441 a 11.757948,11.757948 0 0 1 11.75781,11.75805 11.757948,11.757948 0 0 1 -11.75781,11.75781 11.757948,11.757948 0 0 1 -11.75805,-11.75781 11.757948,11.757948 0 0 1 11.75805,-11.75805 z"
       id="path3373-6-3-6"
       inkscape:connector-curvature="0" />
    <path
       style="opacity:1;fill:#ff9955;fill-opacity:1"
       d="m 646.76437,490.82159 a 11.870364,11.870364 0 0 0 -11.87036,11.87036 11.870364,11.870364 0 0 0 11.87036,11.87037 11.870364,11.870364 0 0 0 11.87037,-11.87037 11.870364,11.870364 0 0 0 -11.87037,-11.87036 z m 0.034,3.18812 a 8.648408,8.648408 0 0 1 8.6483,8.64848 8.648408,8.648408 0 0 1 -8.6483,8.64831 8.648408,8.648408 0 0 1 -8.64849,-8.64831 8.648408,8.648408 0 0 1 8.64849,-8.64848 z"
       id="path3373-6-7-5-2"
       inkscape:connector-curvature="0" />
    <path
       style="opacity:1;fill:#ff6600;fill-opacity:1"
       d="m 531.59278,482.5236 a 21.073231,21.073231 0 0 0 -21.07323,21.07323 21.073231,21.073231 0 0 0 21.07323,21.07323 21.073231,21.073231 0 0 0 21.07323,-21.07323 21.073231,21.073231 0 0 0 -21.07323,-21.07323 z m 0.0603,5.65981 a 15.353354,15.353354 0 0 1 15.35316,15.35349 15.353354,15.353354 0 0 1 -15.35316,15.35317 15.353354,15.353354 0 0 1 -15.3535,-15.35317 15.353354,15.353354 0 0 1 15.3535,-15.35349 z"
       id="path3373-5-2"
       inkscape:connector-curvature="0" />
    <path
       style="opacity:1;fill:#ff7f2a;fill-opacity:1"
       d="m 531.72615,487.05868 a 16.138361,16.138361 0 0 0 -16.13835,16.13835 16.138361,16.138361 0 0 0 16.13835,16.13837 16.138361,16.138361 0 0 0 16.13837,-16.13837 16.138361,16.138361 0 0 0 -16.13837,-16.13835 z m 0.0462,4.33441 a 11.757948,11.757948 0 0 1 11.75781,11.75805 11.757948,11.757948 0 0 1 -11.75781,11.75781 11.757948,11.757948 0 0 1 -11.75805,-11.75781 11.757948,11.757948 0 0 1 11.75805,-11.75805 z"
       id="path3373-6-3-8"
       inkscape:connector-curvature="0" />
    <path
       style="opacity:1;fill:#ff9955;fill-opacity:1"
       d="m 531.85953,491.32667 a 11.870364,11.870364 0 0 0 -11.87036,11.87036 11.870364,11.870364 0 0 0 11.87036,11.87037 11.870364,11.870364 0 0 0 11.87037,-11.87037 11.870364,11.870364 0 0 0 -11.87037,-11.87036 z m 0.034,3.18812 a 8.648408,8.648408 0 0 1 8.6483,8.64848 8.648408,8.648408 0 0 1 -8.6483,8.64831 8.648408,8.648408 0 0 1 -8.64849,-8.64831 8.648408,8.648408 0 0 1 8.64849,-8.64848 z"
       id="path3373-6-7-5-97"
       inkscape:connector-curvature="0" />
    <path
       style="opacity:1;fill:#ff6600;fill-opacity:1"
       d="m 416.43539,481.51345 a 21.073231,21.073231 0 0 0 -21.07323,21.07323 21.073231,21.073231 0 0 0 21.07323,21.07323 21.073231,21.073231 0 0 0 21.07323,-21.07323 21.073231,21.073231 0 0 0 -21.07323,-21.07323 z m 0.0603,5.65981 a 15.353354,15.353354 0 0 1 15.35316,15.35349 15.353354,15.353354 0 0 1 -15.35316,15.35317 15.353354,15.353354 0 0 1 -15.3535,-15.35317 15.353354,15.353354 0 0 1 15.3535,-15.35349 z"
       id="path3373-5-6-3"
       inkscape:connector-curvature="0" />
    <path
       style="opacity:1;fill:#ff7f2a;fill-opacity:1"
       d="m 416.56876,486.04853 a 16.138361,16.138361 0 0 0 -16.13835,16.13835 16.138361,16.138361 0 0 0 16.13835,16.13837 16.138361,16.138361 0 0 0 16.13837,-16.13837 16.138361,16.138361 0 0 0 -16.13837,-16.13835 z m 0.0462,4.33441 a 11.757948,11.757948 0 0 1 11.75781,11.75805 11.757948,11.757948 0 0 1 -11.75781,11.75781 11.757948,11.757948 0 0 1 -11.75805,-11.75781 11.757948,11.757948 0 0 1 11.75805,-11.75805 z"
       id="path3373-6-3-2-6"
       inkscape:connector-curvature="0" />
    <path
       style="opacity:1;fill:#ff9955;fill-opacity:1"
       d="m 416.70214,490.31652 a 11.870364,11.870364 0 0 0 -11.87036,11.87036 11.870364,11.870364 0 0 0 11.87036,11.87037 11.870364,11.870364 0 0 0 11.87037,-11.87037 11.870364,11.870364 0 0 0 -11.87037,-11.87036 z m 0.034,3.18812 a 8.648408,8.648408 0 0 1 8.6483,8.64848 8.648408,8.648408 0 0 1 -8.6483,8.64831 8.648408,8.648408 0 0 1 -8.64849,-8.64831 8.648408,8.648408 0 0 1 8.64849,-8.64848 z"
       id="path3373-6-7-5-9-1"
       inkscape:connector-curvature="0" />
    <path
       style="opacity:1;fill:#ff6600;fill-opacity:1"
       d="m 475.02424,396.15556 a 21.073231,21.073231 0 0 0 -21.07323,21.07323 21.073231,21.073231 0 0 0 21.07323,21.07323 21.073231,21.073231 0 0 0 21.07323,-21.07323 21.073231,21.073231 0 0 0 -21.07323,-21.07323 z m 0.0603,5.65981 a 15.353354,15.353354 0 0 1 15.35316,15.35349 15.353354,15.353354 0 0 1 -15.35316,15.35317 15.353354,15.353354 0 0 1 -15.3535,-15.35317 15.353354,15.353354 0 0 1 15.3535,-15.35349 z"
       id="path3373-5-6-1-2"
       inkscape:connector-curvature="0" />
    <path
       style="opacity:1;fill:#ff7f2a;fill-opacity:1"
       d="m 475.15761,400.69064 a 16.138361,16.138361 0 0 0 -16.13835,16.13835 16.138361,16.138361 0 0 0 16.13835,16.13837 16.138361,16.138361 0 0 0 16.13837,-16.13837 16.138361,16.138361 0 0 0 -16.13837,-16.13835 z m 0.0462,4.33441 a 11.757948,11.757948 0 0 1 11.75781,11.75805 11.757948,11.757948 0 0 1 -11.75781,11.75781 11.757948,11.757948 0 0 1 -11.75805,-11.75781 11.757948,11.757948 0 0 1 11.75805,-11.75805 z"
       id="path3373-6-3-2-2-9"
       inkscape:connector-curvature="0" />
    <path
       style="opacity:1;fill:#ff9955;fill-opacity:1"
       d="m 475.29099,404.95863 a 11.870364,11.870364 0 0 0 -11.87036,11.87036 11.870364,11.870364 0 0 0 11.87036,11.87037 11.870364,11.870364 0 0 0 11.87037,-11.87037 11.870364,11.870364 0 0 0 -11.87037,-11.87036 z m 0.034,3.18812 a 8.648408,8.648408 0 0 1 8.6483,8.64848 8.648408,8.648408 0 0 1 -8.6483,8.64831 8.648408,8.648408 0 0 1 -8.64849,-8.64831 8.648408,8.648408 0 0 1 8.64849,-8.64848 z"
       id="path3373-6-7-5-9-7-3"
       inkscape:connector-curvature="0" />
    <path
       style="opacity:1;fill:#ff6600;fill-opacity:1"
       d="m 370.36516,256.37922 0,39.10742 39.10742,0 0,-39.10742 -39.10742,0 z m 3.15039,3.02539 32.67969,0 0,32.67969 -32.67969,0 0,-32.67969 z"
       id="rect3613-7"
       inkscape:connector-curvature="0" />
    <path
       inkscape:connector-curvature="0"
       style="opacity:1;fill:#ff7f2a;fill-opacity:1"
       d="m 373.45877,259.34732 0,32.79396 32.79396,0 0,-32.79396 -32.79396,0 z m 2.64179,2.53697 27.40392,0 0,27.40392 -27.40392,0 0,-27.40392 z"
       id="rect3613-7-3" />
    <path
       inkscape:connector-curvature="0"
       style="opacity:1;fill:#ff9955;fill-opacity:1"
       d="m 375.82631,261.87269 0,27.80634 27.80634,0 0,-27.80634 -27.80634,0 z m 2.24,2.15113 23.23607,0 0,23.23606 -23.23607,0 0,-23.23606 z"
       id="rect3613-7-3-6" />
    <path
       inkscape:connector-curvature="0"
       style="opacity:1;fill:#ff6600;fill-opacity:1"
       d="m 432.36329,259.78926 0,25.97544 26.22798,0 0,-25.97544 -26.22798,0 z m 2.11286,2.00949 21.91712,0 0,21.70609 -21.91712,0 0,-21.70609 z"
       id="rect3613-7-1" />
    <path
       inkscape:connector-curvature="0"
       style="opacity:1;fill:#ff7f2a;fill-opacity:1"
       d="m 434.43807,261.7607 0,21.78199 21.99376,0 0,-21.78199 -21.99376,0 z m 1.77175,1.68507 18.37885,0 0,18.20189 -18.37885,0 0,-18.20189 z"
       id="rect3613-7-3-0" />
    <path
       inkscape:connector-curvature="0"
       style="opacity:1;fill:#ff9955;fill-opacity:1"
       d="m 436.02589,263.43806 0,18.46918 18.64874,0 0,-18.46918 -18.64874,0 z m 1.50229,1.4288 15.58362,0 0,15.43356 -15.58362,0 0,-15.43356 z"
       id="rect3613-7-3-6-6" />
    <path
       style="opacity:1;fill:#ff6600;fill-opacity:1"
       d="m 445.3548,699.91664 a 10.064161,10.064161 0 0 0 -10.06416,10.06416 10.064161,10.064161 0 0 0 10.06416,10.06416 10.064161,10.064161 0 0 0 10.06416,-10.06416 10.064161,10.064161 0 0 0 -10.06416,-10.06416 z m 0.0288,2.70301 a 7.3324603,7.3324603 0 0 1 7.33236,7.33253 7.3324603,7.3324603 0 0 1 -7.33236,7.33237 7.3324603,7.3324603 0 0 1 -7.33253,-7.33237 7.3324603,7.3324603 0 0 1 7.33253,-7.33253 z"
       id="path3373-5-3"
       inkscape:connector-curvature="0" />
    <path
       style="opacity:1;fill:#ff7f2a;fill-opacity:1"
       d="m 445.41849,702.0825 a 7.7073643,7.7073643 0 0 0 -7.70736,7.70736 7.7073643,7.7073643 0 0 0 7.70736,7.70737 7.7073643,7.7073643 0 0 0 7.70737,-7.70737 7.7073643,7.7073643 0 0 0 -7.70737,-7.70736 z m 0.0221,2.07003 a 5.615365,5.615365 0 0 1 5.6153,5.61541 5.615365,5.615365 0 0 1 -5.6153,5.6153 5.615365,5.615365 0 0 1 -5.61542,-5.6153 5.615365,5.615365 0 0 1 5.61542,-5.61541 z"
       id="path3373-6-3-20"
       inkscape:connector-curvature="0" />
    <path
       style="opacity:1;fill:#ff9955;fill-opacity:1"
       d="m 445.48219,704.12081 a 5.6690527,5.6690527 0 0 0 -5.66905,5.66905 5.6690527,5.6690527 0 0 0 5.66905,5.66906 5.6690527,5.6690527 0 0 0 5.66906,-5.66906 5.6690527,5.6690527 0 0 0 -5.66906,-5.66905 z m 0.0162,1.52258 a 4.1303098,4.1303098 0 0 1 4.13026,4.13035 4.1303098,4.1303098 0 0 1 -4.13026,4.13026 4.1303098,4.1303098 0 0 1 -4.13035,-4.13026 4.1303098,4.1303098 0 0 1 4.13035,-4.13035 z"
       id="path3373-6-7-5-6"
       inkscape:connector-curvature="0" />
    <path
       style="opacity:1;fill:#ff6600;fill-opacity:1"
       d="m 337.1436,653.63064 a 10.064161,10.064161 0 0 0 -10.06416,10.06416 10.064161,10.064161 0 0 0 10.06416,10.06416 10.064161,10.064161 0 0 0 10.06416,-10.06416 10.064161,10.064161 0 0 0 -10.06416,-10.06416 z m 0.0288,2.70301 a 7.3324603,7.3324603 0 0 1 7.33237,7.33253 7.3324603,7.3324603 0 0 1 -7.33237,7.33237 7.3324603,7.3324603 0 0 1 -7.33253,-7.33237 7.3324603,7.3324603 0 0 1 7.33253,-7.33253 z"
       id="path3373-5-6-15"
       inkscape:connector-curvature="0" />
    <path
       style="opacity:1;fill:#ff7f2a;fill-opacity:1"
       d="m 337.2073,655.7965 a 7.7073643,7.7073643 0 0 0 -7.70736,7.70736 7.7073643,7.7073643 0 0 0 7.70736,7.70737 7.7073643,7.7073643 0 0 0 7.70736,-7.70737 7.7073643,7.7073643 0 0 0 -7.70736,-7.70736 z m 0.0221,2.07003 a 5.615365,5.615365 0 0 1 5.6153,5.61542 5.615365,5.615365 0 0 1 -5.6153,5.6153 5.615365,5.615365 0 0 1 -5.61541,-5.6153 5.615365,5.615365 0 0 1 5.61541,-5.61542 z"
       id="path3373-6-3-2-5"
       inkscape:connector-curvature="0" />
    <path
       style="opacity:1;fill:#ff9955;fill-opacity:1"
       d="m 337.271,657.83481 a 5.6690527,5.6690527 0 0 0 -5.66906,5.66905 5.6690527,5.6690527 0 0 0 5.66906,5.66906 5.6690527,5.6690527 0 0 0 5.66905,-5.66906 5.6690527,5.6690527 0 0 0 -5.66905,-5.66905 z m 0.0162,1.52258 a 4.1303098,4.1303098 0 0 1 4.13026,4.13035 4.1303098,4.1303098 0 0 1 -4.13026,4.13026 4.1303098,4.1303098 0 0 1 -4.13035,-4.13026 4.1303098,4.1303098 0 0 1 4.13035,-4.13035 z"
       id="path3373-6-7-5-9-4"
       inkscape:connector-curvature="0" />
    <path
       style="opacity:1;fill:#ff6600;fill-opacity:1"
       d="m 418.33878,658.66896 a 10.064161,10.064161 0 0 0 -10.06417,10.06416 10.064161,10.064161 0 0 0 10.06417,10.06416 10.064161,10.064161 0 0 0 10.06416,-10.06416 10.064161,10.064161 0 0 0 -10.06416,-10.06416 z m 0.0288,2.70301 a 7.3324603,7.3324603 0 0 1 7.33237,7.33253 7.3324603,7.3324603 0 0 1 -7.33237,7.33237 7.3324603,7.3324603 0 0 1 -7.33253,-7.33237 7.3324603,7.3324603 0 0 1 7.33253,-7.33253 z"
       id="path3373-5-6-1-7"
       inkscape:connector-curvature="0" />
    <path
       style="opacity:1;fill:#ff7f2a;fill-opacity:1"
       d="m 418.40247,660.83482 a 7.7073643,7.7073643 0 0 0 -7.70736,7.70736 7.7073643,7.7073643 0 0 0 7.70736,7.70737 7.7073643,7.7073643 0 0 0 7.70737,-7.70737 7.7073643,7.7073643 0 0 0 -7.70737,-7.70736 z m 0.0221,2.07003 a 5.615365,5.615365 0 0 1 5.6153,5.61541 5.615365,5.615365 0 0 1 -5.6153,5.6153 5.615365,5.615365 0 0 1 -5.61541,-5.6153 5.615365,5.615365 0 0 1 5.61541,-5.61541 z"
       id="path3373-6-3-2-2-6"
       inkscape:connector-curvature="0" />
    <path
       style="opacity:1;fill:#ff9955;fill-opacity:1"
       d="m 418.46617,662.87313 a 5.6690527,5.6690527 0 0 0 -5.66905,5.66905 5.6690527,5.6690527 0 0 0 5.66905,5.66906 5.6690527,5.6690527 0 0 0 5.66906,-5.66906 5.6690527,5.6690527 0 0 0 -5.66906,-5.66905 z m 0.0162,1.52258 a 4.1303098,4.1303098 0 0 1 4.13026,4.13035 4.1303098,4.1303098 0 0 1 -4.13026,4.13026 4.1303098,4.1303098 0 0 1 -4.13035,-4.13026 4.1303098,4.1303098 0 0 1 4.13035,-4.13035 z"
       id="path3373-6-7-5-9-7-5"
       inkscape:connector-curvature="0" />
    <path
       style="opacity:1;fill:#ff6600;fill-opacity:1"
       d="m 472.12961,740.8025 a 10.064161,10.064161 0 0 0 -10.06416,10.06416 10.064161,10.064161 0 0 0 10.06416,10.06416 10.064161,10.064161 0 0 0 10.06416,-10.06416 10.064161,10.064161 0 0 0 -10.06416,-10.06416 z m 0.0288,2.70301 a 7.3324603,7.3324603 0 0 1 7.33237,7.33253 7.3324603,7.3324603 0 0 1 -7.33237,7.33237 7.3324603,7.3324603 0 0 1 -7.33253,-7.33237 7.3324603,7.3324603 0 0 1 7.33253,-7.33253 z"
       id="path3373-5-60-6"
       inkscape:connector-curvature="0" />
    <path
       style="opacity:1;fill:#ff7f2a;fill-opacity:1"
       d="m 472.1933,742.96836 a 7.7073643,7.7073643 0 0 0 -7.70736,7.70736 7.7073643,7.7073643 0 0 0 7.70736,7.70737 7.7073643,7.7073643 0 0 0 7.70737,-7.70737 7.7073643,7.7073643 0 0 0 -7.70737,-7.70736 z m 0.0221,2.07003 a 5.615365,5.615365 0 0 1 5.61529,5.61541 5.615365,5.615365 0 0 1 -5.61529,5.6153 5.615365,5.615365 0 0 1 -5.61542,-5.6153 5.615365,5.615365 0 0 1 5.61542,-5.61541 z"
       id="path3373-6-3-6-9"
       inkscape:connector-curvature="0" />
    <path
       style="opacity:1;fill:#ff9955;fill-opacity:1"
       d="m 472.257,745.00667 a 5.6690527,5.6690527 0 0 0 -5.66905,5.66905 5.6690527,5.6690527 0 0 0 5.66905,5.66906 5.6690527,5.6690527 0 0 0 5.66906,-5.66906 5.6690527,5.6690527 0 0 0 -5.66906,-5.66905 z m 0.0162,1.52258 a 4.1303098,4.1303098 0 0 1 4.13026,4.13035 4.1303098,4.1303098 0 0 1 -4.13026,4.13026 4.1303098,4.1303098 0 0 1 -4.13035,-4.13026 4.1303098,4.1303098 0 0 1 4.13035,-4.13035 z"
       id="path3373-6-7-5-2-3"
       inkscape:connector-curvature="0" />
    <path
       style="opacity:1;fill:#ff6600;fill-opacity:1"
       d="m 417.25331,741.04371 a 10.064161,10.064161 0 0 0 -10.06416,10.06416 10.064161,10.064161 0 0 0 10.06416,10.06416 10.064161,10.064161 0 0 0 10.06416,-10.06416 10.064161,10.064161 0 0 0 -10.06416,-10.06416 z m 0.0288,2.70302 a 7.3324603,7.3324603 0 0 1 7.33237,7.33252 7.3324603,7.3324603 0 0 1 -7.33237,7.33237 7.3324603,7.3324603 0 0 1 -7.33253,-7.33237 7.3324603,7.3324603 0 0 1 7.33253,-7.33252 z"
       id="path3373-5-2-7"
       inkscape:connector-curvature="0" />
    <path
       style="opacity:1;fill:#ff7f2a;fill-opacity:1"
       d="m 417.31701,743.20958 a 7.7073643,7.7073643 0 0 0 -7.70736,7.70736 7.7073643,7.7073643 0 0 0 7.70736,7.70736 7.7073643,7.7073643 0 0 0 7.70736,-7.70736 7.7073643,7.7073643 0 0 0 -7.70736,-7.70736 z m 0.0221,2.07003 a 5.615365,5.615365 0 0 1 5.6153,5.61541 5.615365,5.615365 0 0 1 -5.6153,5.6153 5.615365,5.615365 0 0 1 -5.61541,-5.6153 5.615365,5.615365 0 0 1 5.61541,-5.61541 z"
       id="path3373-6-3-8-4"
       inkscape:connector-curvature="0" />
    <path
       style="opacity:1;fill:#ff9955;fill-opacity:1"
       d="m 417.38071,745.24789 a 5.6690527,5.6690527 0 0 0 -5.66905,5.66905 5.6690527,5.6690527 0 0 0 5.66905,5.66905 5.6690527,5.6690527 0 0 0 5.66905,-5.66905 5.6690527,5.6690527 0 0 0 -5.66905,-5.66905 z m 0.0162,1.52258 a 4.1303098,4.1303098 0 0 1 4.13026,4.13034 4.1303098,4.1303098 0 0 1 -4.13026,4.13027 4.1303098,4.1303098 0 0 1 -4.13035,-4.13027 4.1303098,4.1303098 0 0 1 4.13035,-4.13034 z"
       id="path3373-6-7-5-97-5"
       inkscape:connector-curvature="0" />
    <path
       style="opacity:1;fill:#ff6600;fill-opacity:1"
       d="m 362.2564,740.56128 a 10.064161,10.064161 0 0 0 -10.06416,10.06417 10.064161,10.064161 0 0 0 10.06416,10.06416 10.064161,10.064161 0 0 0 10.06416,-10.06416 10.064161,10.064161 0 0 0 -10.06416,-10.06417 z m 0.0288,2.70302 a 7.3324603,7.3324603 0 0 1 7.33237,7.33252 7.3324603,7.3324603 0 0 1 -7.33237,7.33238 7.3324603,7.3324603 0 0 1 -7.33253,-7.33238 7.3324603,7.3324603 0 0 1 7.33253,-7.33252 z"
       id="path3373-5-6-3-2"
       inkscape:connector-curvature="0" />
    <path
       style="opacity:1;fill:#ff7f2a;fill-opacity:1"
       d="m 362.3201,742.72715 a 7.7073643,7.7073643 0 0 0 -7.70736,7.70736 7.7073643,7.7073643 0 0 0 7.70736,7.70737 7.7073643,7.7073643 0 0 0 7.70737,-7.70737 7.7073643,7.7073643 0 0 0 -7.70737,-7.70736 z m 0.0221,2.07003 a 5.615365,5.615365 0 0 1 5.6153,5.61541 5.615365,5.615365 0 0 1 -5.6153,5.6153 5.615365,5.615365 0 0 1 -5.61541,-5.6153 5.615365,5.615365 0 0 1 5.61541,-5.61541 z"
       id="path3373-6-3-2-6-5"
       inkscape:connector-curvature="0" />
    <path
       style="opacity:1;fill:#ff9955;fill-opacity:1"
       d="m 362.3838,744.76546 a 5.6690527,5.6690527 0 0 0 -5.66905,5.66905 5.6690527,5.6690527 0 0 0 5.66905,5.66905 5.6690527,5.6690527 0 0 0 5.66905,-5.66905 5.6690527,5.6690527 0 0 0 -5.66905,-5.66905 z m 0.0162,1.52258 a 4.1303098,4.1303098 0 0 1 4.13025,4.13035 4.1303098,4.1303098 0 0 1 -4.13025,4.13026 4.1303098,4.1303098 0 0 1 -4.13035,-4.13026 4.1303098,4.1303098 0 0 1 4.13035,-4.13035 z"
       id="path3373-6-7-5-9-1-4"
       inkscape:connector-curvature="0" />
    <path
       style="opacity:1;fill:#ff6600;fill-opacity:1"
       d="m 337.023,653.99246 a 10.064161,10.064161 0 0 0 -10.06416,10.06416 10.064161,10.064161 0 0 0 10.06416,10.06416 10.064161,10.064161 0 0 0 10.06416,-10.06416 10.064161,10.064161 0 0 0 -10.06416,-10.06416 z m 0.0288,2.70302 a 7.3324603,7.3324603 0 0 1 7.33236,7.33252 7.3324603,7.3324603 0 0 1 -7.33236,7.33237 7.3324603,7.3324603 0 0 1 -7.33253,-7.33237 7.3324603,7.3324603 0 0 1 7.33253,-7.33252 z"
       id="path3373-5-6-1-2-7"
       inkscape:connector-curvature="0" />
    <path
       style="opacity:1;fill:#ff7f2a;fill-opacity:1"
       d="m 337.08669,656.15833 a 7.7073643,7.7073643 0 0 0 -7.70736,7.70736 7.7073643,7.7073643 0 0 0 7.70736,7.70737 7.7073643,7.7073643 0 0 0 7.70737,-7.70737 7.7073643,7.7073643 0 0 0 -7.70737,-7.70736 z m 0.0221,2.07003 a 5.615365,5.615365 0 0 1 5.6153,5.61541 5.615365,5.615365 0 0 1 -5.6153,5.6153 5.615365,5.615365 0 0 1 -5.61542,-5.6153 5.615365,5.615365 0 0 1 5.61542,-5.61541 z"
       id="path3373-6-3-2-2-9-4"
       inkscape:connector-curvature="0" />
    <path
       style="opacity:1;fill:#ff9955;fill-opacity:1"
       d="m 337.15039,658.19664 a 5.6690527,5.6690527 0 0 0 -5.66905,5.66905 5.6690527,5.6690527 0 0 0 5.66905,5.66905 5.6690527,5.6690527 0 0 0 5.66906,-5.66905 5.6690527,5.6690527 0 0 0 -5.66906,-5.66905 z m 0.0162,1.52258 a 4.1303098,4.1303098 0 0 1 4.13026,4.13034 4.1303098,4.1303098 0 0 1 -4.13026,4.13027 4.1303098,4.1303098 0 0 1 -4.13035,-4.13027 4.1303098,4.1303098 0 0 1 4.13035,-4.13034 z"
       id="path3373-6-7-5-9-7-3-4"
       inkscape:connector-curvature="0" />
    <path
       inkscape:connector-curvature="0"
       style="opacity:1;fill:#ff6600;fill-opacity:1"
       d="m 380.50924,700.25154 0,18.95455 19.13882,0 0,-18.95455 -19.13882,0 z m 1.54178,1.46635 15.99314,0 0,15.83915 -15.99314,0 0,-15.83915 z"
       id="rect3613-7-1-3" />
    <path
       inkscape:connector-curvature="0"
       style="opacity:1;fill:#ff7f2a;fill-opacity:1"
       d="m 382.02322,701.69013 0,15.89453 16.04907,0 0,-15.89453 -16.04907,0 z m 1.29287,1.22961 13.41123,0 0,13.2821 -13.41123,0 0,-13.2821 z"
       id="rect3613-7-3-0-0" />
    <path
       inkscape:connector-curvature="0"
       style="opacity:1;fill:#ff9955;fill-opacity:1"
       d="m 383.18187,702.91411 0,13.47715 13.60818,0 0,-13.47715 -13.60818,0 z m 1.09624,1.04261 11.37153,0 0,11.26203 -11.37153,0 0,-11.26203 z"
       id="rect3613-7-3-6-6-7" />
    <path
       style="opacity:1;fill:#cccccc;fill-opacity:1"
       d="m 445.40363,699.87655 a 10.064161,10.064161 0 0 0 -10.06416,10.06416 10.064161,10.064161 0 0 0 10.06416,10.06416 10.064161,10.064161 0 0 0 10.06416,-10.06416 10.064161,10.064161 0 0 0 -10.06416,-10.06416 z m 0.0288,2.70301 a 7.3324603,7.3324603 0 0 1 7.33236,7.33253 7.3324603,7.3324603 0 0 1 -7.33236,7.33237 7.3324603,7.3324603 0 0 1 -7.33253,-7.33237 7.3324603,7.3324603 0 0 1 7.33253,-7.33253 z"
       id="path3373-5-3-8"
       inkscape:connector-curvature="0" />
    <path
       style="opacity:1;fill:#ececec;fill-opacity:1"
       d="m 445.46732,702.04241 a 7.7073643,7.7073643 0 0 0 -7.70736,7.70736 7.7073643,7.7073643 0 0 0 7.70736,7.70737 7.7073643,7.7073643 0 0 0 7.70737,-7.70737 7.7073643,7.7073643 0 0 0 -7.70737,-7.70736 z m 0.0221,2.07003 a 5.615365,5.615365 0 0 1 5.6153,5.61541 5.615365,5.615365 0 0 1 -5.6153,5.6153 5.615365,5.615365 0 0 1 -5.61542,-5.6153 5.615365,5.615365 0 0 1 5.61542,-5.61541 z"
       id="path3373-6-3-20-6"
       inkscape:connector-curvature="0" />
    <path
       style="opacity:1;fill:#f9f9f9;fill-opacity:1"
       d="m 445.53102,704.08072 a 5.6690527,5.6690527 0 0 0 -5.66905,5.66905 5.6690527,5.6690527 0 0 0 5.66905,5.66906 5.6690527,5.6690527 0 0 0 5.66906,-5.66906 5.6690527,5.6690527 0 0 0 -5.66906,-5.66905 z m 0.0162,1.52258 a 4.1303098,4.1303098 0 0 1 4.13026,4.13035 4.1303098,4.1303098 0 0 1 -4.13026,4.13026 4.1303098,4.1303098 0 0 1 -4.13035,-4.13026 4.1303098,4.1303098 0 0 1 4.13035,-4.13035 z"
       id="path3373-6-7-5-6-8"
       inkscape:connector-curvature="0" />
    <circle
       style="opacity:1;fill:#ff6600;fill-opacity:1"
       id="path3903"
       cx="121.09203"
       cy="700.95538"
       r="35.986683" />
    <circle
       style="opacity:1;fill:#ff9955;fill-opacity:1"
       id="path3903-8"
       cx="120.5177"
       cy="701.36639"
       r="26.137695" />
    <circle
       style="opacity:1;fill:#ffffff;fill-opacity:1"
       id="path3903-8-4"
       cx="120.65009"
       cy="701.33417"
       r="15.63887" />
    <path
       style="opacity:1;fill:#ff6600;fill-opacity:1"
       d="M 221.60938 664.95312 A 32.053848 32.053848 0 0 0 193.96875 696.66211 A 32.053848 32.053848 0 0 0 226.02148 728.7168 A 32.053848 32.053848 0 0 0 245.70898 721.91211 L 237.98633 714.18945 A 21.160992 21.160992 0 0 1 226.13086 717.8457 A 21.160992 21.160992 0 0 1 204.9707 696.68359 A 21.160992 21.160992 0 0 1 221.60938 676.03906 L 221.60938 664.95312 z M 230.93945 665.01172 L 230.93945 676.09961 A 21.160992 21.160992 0 0 1 247.29297 696.68359 A 21.160992 21.160992 0 0 1 244.36719 707.375 L 252.15234 715.1582 A 32.053848 32.053848 0 0 0 258.07617 696.66211 A 32.053848 32.053848 0 0 0 230.93945 665.01172 z "
       id="path3903-8-4-4" />
    <path
       inkscape:connector-curvature="0"
       style="opacity:1;fill:#ff6600;fill-opacity:1"
       d="m 186.30778,884.26275 a 40.312451,40.312451 0 0 0 -34.76218,39.87875 40.312451,40.312451 0 0 0 40.31105,40.31351 40.312451,40.312451 0 0 0 24.75994,-8.55791 l -9.71238,-9.71238 a 26.613075,26.613075 0 0 1 -14.91,4.59827 26.613075,26.613075 0 0 1 -26.61203,-26.61448 26.613075,26.613075 0 0 1 20.9256,-25.96355 l 0,-13.94221 z m 11.73394,0.0737 0,13.94466 a 26.613075,26.613075 0 0 1 20.56697,25.8874 26.613075,26.613075 0 0 1 -3.6796,13.44603 l 9.79098,9.78852 a 40.312451,40.312451 0 0 0 7.45009,-23.26156 40.312451,40.312451 0 0 0 -34.12844,-39.80505 z"
       id="path3903-8-4-4-0" />
    <circle
       style="opacity:1;fill:#ff9955;fill-opacity:1"
       id="path3903-8-6"
       cx="192.21501"
       cy="924.18036"
       r="19.256031" />
    <circle
       style="opacity:1;fill:#ffffff;fill-opacity:1"
       id="path3903-8-4-8"
       cx="192.31255"
       cy="924.15662"
       r="11.521389" />
    <path
       inkscape:connector-curvature="0"
       style="opacity:1;fill:#ff6600;fill-opacity:1"
       d="m 332.39939,931.28393 a 14.99804,14.99804 0 0 0 -12.93309,14.83668 14.99804,14.99804 0 0 0 14.99752,14.99844 14.99804,14.99804 0 0 0 9.21181,-3.18393 l -3.61344,-3.61344 a 9.9012574,9.9012574 0 0 1 -5.54719,1.71076 9.9012574,9.9012574 0 0 1 -9.90087,-9.90178 9.9012574,9.9012574 0 0 1 7.78526,-9.6596 l 0,-5.18713 z m 4.36556,0.0274 0,5.18804 a 9.9012574,9.9012574 0 0 1 7.65183,9.63127 9.9012574,9.9012574 0 0 1 -1.36898,5.00253 l 3.64269,3.64177 a 14.99804,14.99804 0 0 0 2.77177,-8.65435 14.99804,14.99804 0 0 0 -12.69731,-14.80926 z"
       id="path3903-8-4-4-0-9" />
    <circle
       style="opacity:1;fill:#ff9955;fill-opacity:1"
       id="path3903-8-6-2"
       cx="334.59714"
       cy="946.13507"
       r="7.1641073" />
    <circle
       style="opacity:1;fill:#ffffff;fill-opacity:1"
       id="path3903-8-4-8-6"
       cx="334.63342"
       cy="946.12622"
       r="4.2864733" />
    <rect
       style="opacity:1;fill:#ff6600;fill-opacity:1"
       id="rect4096"
       width="42.94643"
       height="42.94643"
       x="291.875"
       y="777.54077" />
    <path
       style="opacity:1;fill:#ff6600;fill-opacity:1"
       d="M 368.38867 933.5918 L 368.38867 937.98242 L 372.6543 937.98242 L 372.6543 933.5918 L 368.38867 933.5918 z M 373.375 933.5918 L 373.375 937.98242 L 377.63672 937.98242 L 377.63672 936.61328 L 377.63867 936.61328 L 377.63867 933.5918 L 373.375 933.5918 z M 378.33203 933.5918 L 378.33203 937.98242 L 382.66016 937.98242 L 382.66016 933.5918 L 378.33203 933.5918 z M 383.35547 933.5918 L 383.35547 937.98242 L 387.64258 937.98242 L 387.64258 933.5918 L 383.35547 933.5918 z M 388.33594 933.5918 L 388.33594 937.98242 L 392.72852 937.98242 L 392.72852 933.5918 L 388.33594 933.5918 z M 368.38867 938.67578 L 368.38867 942.96484 L 372.6543 942.96484 L 372.6543 938.67578 L 368.38867 938.67578 z M 373.375 938.67578 L 373.375 942.96484 L 377.63672 942.96484 L 377.63672 938.67578 L 373.375 938.67578 z M 378.33203 938.67578 L 378.33203 942.96484 L 382.66016 942.96484 L 382.66016 938.67578 L 378.33203 938.67578 z M 383.35547 938.67578 L 383.35547 942.96484 L 387.64258 942.96484 L 387.64258 938.67578 L 383.35547 938.67578 z M 388.33594 938.67578 L 388.33594 942.96484 L 392.72852 942.96484 L 392.72852 938.67578 L 388.33594 938.67578 z M 368.38867 943.6582 L 368.38867 947.98828 L 372.6543 947.98828 L 372.6543 943.6582 L 368.38867 943.6582 z M 373.375 943.6582 L 373.375 947.98828 L 377.63672 947.98828 L 377.63672 943.6582 L 373.375 943.6582 z M 383.35547 943.6582 L 383.35547 947.98828 L 387.64258 947.98828 L 387.64258 943.6582 L 383.35547 943.6582 z M 388.33594 943.6582 L 388.33594 947.98828 L 392.72852 947.98828 L 392.72852 943.6582 L 388.33594 943.6582 z M 368.38867 948.68359 L 368.38867 952.9707 L 372.6543 952.9707 L 372.6543 948.68359 L 368.38867 948.68359 z M 373.375 948.68359 L 373.375 952.9707 L 377.63672 952.9707 L 377.63672 948.68359 L 373.375 948.68359 z M 378.33203 948.68359 L 378.33203 952.9707 L 382.66016 952.9707 L 382.66016 948.68359 L 378.33203 948.68359 z M 383.35547 948.68359 L 383.35547 952.9707 L 387.64258 952.9707 L 387.64258 948.68359 L 383.35547 948.68359 z M 388.33594 948.68359 L 388.33594 952.9707 L 392.72852 952.9707 L 392.72852 948.68359 L 388.33594 948.68359 z M 368.38867 953.66406 L 368.38867 957.96094 L 372.6543 957.96094 L 372.6543 953.66406 L 368.38867 953.66406 z M 373.375 953.66406 L 373.375 957.96094 L 377.63672 957.96094 L 377.63672 953.66406 L 373.375 953.66406 z M 378.33203 953.66406 L 378.33203 957.96094 L 382.66016 957.96094 L 382.66016 953.66406 L 378.33203 953.66406 z M 383.35547 953.66406 L 383.35547 957.96094 L 387.64258 957.96094 L 387.64258 953.66406 L 383.35547 953.66406 z M 388.33594 953.66406 L 388.33594 957.96094 L 392.72852 957.96094 L 392.72852 953.66406 L 388.33594 953.66406 z "
       id="rect4096-6" />
    <path
       d="m 283.07001,802.00677 27.48775,27.48775 m -23.95616,-31.01934 27.48775,27.48775 m -23.95615,-31.01935 27.48775,27.48775 m -23.95616,-31.01933 27.48775,27.48775 m -23.95616,-31.01935 27.48775,27.48775 m -23.95615,-31.01935 27.48775,27.48776 m -23.95616,-31.01934 27.48775,27.48775 m -23.95616,-31.01935 27.48775,27.48775 m -52.2089,-2.7666 27.61402,-27.61402 m -24.09858,31.12947 27.61403,-27.61403 m -24.09858,31.12947 27.61402,-27.61402 m -24.09858,31.12947 27.61403,-27.61403 m -24.09858,31.12947 27.61402,-27.61402 m -24.09858,31.12946 27.61402,-27.61402 m -24.09858,31.12947 27.61403,-27.61403 m -24.09858,31.12947 27.61402,-27.61402"
       style="fill:none;fill-opacity:0.75;fill-rule:evenodd;stroke:#000000;stroke-width:0.49829946pt;stroke-linecap:butt;stroke-linejoin:miter;stroke-opacity:1"
       id="path4119"
       inkscape:connector-curvature="0" />
    <rect
       style="opacity:1;fill:#ffffff;fill-opacity:1"
       id="rect4313"
       width="4.2512069"
       height="4.4045563"
       x="368.39157"
       y="933.58112" />
    <rect
       style="opacity:1;fill:#ff9955;fill-opacity:1"
       id="rect4313-6"
       width="4.2512069"
       height="4.4045563"
       x="373.38397"
       y="938.67883" />
    <path
       style="opacity:1;fill:#ff6600;fill-opacity:1"
       d="m 399.41992,933.49219 0,8.74219 8.73633,0 0,-8.74219 -8.73633,0 z m 9.98633,0 0,8.74219 8.76172,0 0,-8.74219 -8.76172,0 z m 10.01172,0 0,8.74219 4.41211,0 0,-8.74219 -4.41211,0 z m -19.99805,9.99219 0,8.76171 8.73633,0 0,-8.76171 -8.73633,0 z m 9.98633,0 0,8.76171 8.76172,0 0,-8.76171 -8.76172,0 z m 10.01172,0 0,8.76171 4.41211,0 0,-8.76171 -4.41211,0 z m -19.99805,10.01171 0,4.41016 8.73633,0 0,-4.41016 -8.73633,0 z m 9.98633,0 0,4.41016 8.76172,0 0,-4.41016 -8.76172,0 z"
       id="rect4357"
       inkscape:connector-curvature="0" />
    <circle
       style="opacity:1;fill:#ffffff;fill-opacity:1"
       id="path3903-8-4-8-6-7"
       cx="421.46417"
       cy="955.45862"
       r="2.5989733" />
    <path
       style="opacity:1;fill:#ff6600;fill-opacity:1"
       d="m 430.69727,933.58008 0,11.16112 11.15362,0 0,-11.16112 -11.15362,0 z m 12.74949,0 0,11.16112 11.18605,0 0,-11.16112 -11.18605,0 z m -12.74949,12.75698 0,11.18604 11.15362,0 0,-11.18604 -11.15362,0 z m 12.74949,0 0,11.18604 11.18605,0 0,-11.18604 -11.18605,0 z"
       id="rect4357-7"
       inkscape:connector-curvature="0" />
    <path
       style="opacity:1;fill:#ff6600;fill-opacity:1"
       d="m 430.67017,959.59344 0,11.16112 11.15362,0 0,-11.16112 -11.15362,0 z m 12.74949,0 0,11.16112 11.18605,0 0,-11.16112 -11.18605,0 z m -12.74949,12.75698 0,11.18604 11.15362,0 0,-11.18604 -11.15362,0 z m 12.74949,0 0,11.18604 11.18605,0 0,-11.18604 -11.18605,0 z"
       id="rect4357-7-7"
       inkscape:connector-curvature="0" />
    <rect
       style="opacity:1;fill:#ffffff;fill-opacity:1"
       id="rect4555"
       width="11.182151"
       height="11.182151"
       x="443.41919"
       y="959.59619" />
    <circle
       style="opacity:1;fill:#1a1a1a;fill-opacity:1"
       id="path3903-8-4-8-6-7-7"
       cx="449.00723"
       cy="965.28821"
       r="6.3333807" />
    <rect
       style="opacity:1;fill:#ffffff;fill-opacity:1"
       id="rect4555-6"
       width="11.182151"
       height="11.182151"
       x="443.44495"
       y="933.57843" />
    <path
       style="opacity:1;fill:#ff6600;fill-opacity:1"
       d="m 443.62891,989.01172 0,11.16018 11.18554,0 0,-11.16018 -11.18554,0 z m -12.75,12.75588 0,11.1855 11.15429,0 0,-11.1855 -11.15429,0 z m 12.75,0 0,11.1855 11.18554,0 0,-11.1855 -11.18554,0 z"
       id="rect4357-7-73"
       inkscape:connector-curvature="0" />
    <path
       style="opacity:1;fill:#ff6600;fill-opacity:1"
       d="M 368.38672 960.01562 L 368.38672 964.40625 L 372.65234 964.40625 L 372.65234 960.01562 L 368.38672 960.01562 z M 373.37305 960.01562 L 373.37305 964.40625 L 377.63477 964.40625 L 377.63477 963.03711 L 377.63672 963.03711 L 377.63672 960.01562 L 373.37305 960.01562 z M 378.33008 960.01562 L 378.33008 964.40625 L 382.6582 964.40625 L 382.6582 960.01562 L 378.33008 960.01562 z M 383.35352 960.01562 L 383.35352 964.40625 L 387.64062 964.40625 L 387.64062 960.01562 L 383.35352 960.01562 z M 388.33398 960.01562 L 388.33398 964.40625 L 392.72656 964.40625 L 392.72656 960.01562 L 388.33398 960.01562 z M 368.38672 965.09961 L 368.38672 969.38867 L 372.65234 969.38867 L 372.65234 965.09961 L 368.38672 965.09961 z M 378.33008 965.09961 L 378.33008 969.38867 L 382.6582 969.38867 L 382.6582 965.09961 L 378.33008 965.09961 z M 383.35352 965.09961 L 383.35352 969.38867 L 387.64062 969.38867 L 387.64062 965.09961 L 383.35352 965.09961 z M 388.33398 965.09961 L 388.33398 969.38867 L 392.72656 969.38867 L 392.72656 965.09961 L 388.33398 965.09961 z M 368.38672 970.08203 L 368.38672 974.41211 L 372.65234 974.41211 L 372.65234 970.08203 L 368.38672 970.08203 z M 373.37305 970.08203 L 373.37305 974.41211 L 377.63477 974.41211 L 377.63477 970.08203 L 373.37305 970.08203 z M 383.35352 970.08203 L 383.35352 974.41211 L 387.64062 974.41211 L 387.64062 970.08203 L 383.35352 970.08203 z M 388.33398 970.08203 L 388.33398 974.41211 L 392.72656 974.41211 L 392.72656 970.08203 L 388.33398 970.08203 z M 368.38672 975.10742 L 368.38672 979.39453 L 372.65234 979.39453 L 372.65234 975.10742 L 368.38672 975.10742 z M 373.37305 975.10742 L 373.37305 979.39453 L 377.63477 979.39453 L 377.63477 975.10742 L 373.37305 975.10742 z M 378.33008 975.10742 L 378.33008 979.39453 L 382.6582 979.39453 L 382.6582 975.10742 L 378.33008 975.10742 z M 383.35352 975.10742 L 383.35352 979.39453 L 387.64062 979.39453 L 387.64062 975.10742 L 383.35352 975.10742 z M 388.33398 975.10742 L 388.33398 979.39453 L 392.72656 979.39453 L 392.72656 975.10742 L 388.33398 975.10742 z M 368.38672 980.08789 L 368.38672 984.38477 L 372.65234 984.38477 L 372.65234 980.08789 L 368.38672 980.08789 z M 373.37305 980.08789 L 373.37305 984.38477 L 377.63477 984.38477 L 377.63477 980.08789 L 373.37305 980.08789 z M 378.33008 980.08789 L 378.33008 984.38477 L 382.6582 984.38477 L 382.6582 980.08789 L 378.33008 980.08789 z M 383.35352 980.08789 L 383.35352 984.38477 L 387.64062 984.38477 L 387.64062 980.08789 L 383.35352 980.08789 z M 388.33398 980.08789 L 388.33398 984.38477 L 392.72656 984.38477 L 392.72656 980.08789 L 388.33398 980.08789 z "
       id="rect4096-6-6" />
    <rect
       style="opacity:1;fill:#ffffff;fill-opacity:1"
       id="rect4313-3"
       width="4.2512069"
       height="4.4045563"
       x="368.38901"
       y="960.00409" />
    <circle
       style="opacity:1;fill:#ffffff;fill-opacity:1"
       id="path3903-8-4-8-6-4"
       cx="375.47098"
       cy="967.3269"
       r="2.2756383" />
    <path
       style="opacity:1;fill:#ff6600;fill-opacity:1"
       d="M 373.43945 987.36523 L 373.43945 991.75586 L 377.70117 991.75586 L 377.70117 990.38672 L 377.70312 990.38672 L 377.70312 987.36523 L 373.43945 987.36523 z M 378.39648 987.36523 L 378.39648 991.75586 L 382.72461 991.75586 L 382.72461 987.36523 L 378.39648 987.36523 z M 383.41992 987.36523 L 383.41992 991.75586 L 387.70703 991.75586 L 387.70703 987.36523 L 383.41992 987.36523 z M 388.40039 987.36523 L 388.40039 991.75586 L 392.79297 991.75586 L 392.79297 987.36523 L 388.40039 987.36523 z M 368.45312 992.44922 L 368.45312 996.73828 L 372.71875 996.73828 L 372.71875 992.44922 L 368.45312 992.44922 z M 378.39648 992.44922 L 378.39648 996.73828 L 382.72461 996.73828 L 382.72461 992.44922 L 378.39648 992.44922 z M 383.41992 992.44922 L 383.41992 996.73828 L 387.70703 996.73828 L 387.70703 992.44922 L 383.41992 992.44922 z M 388.40039 992.44922 L 388.40039 996.73828 L 392.79297 996.73828 L 392.79297 992.44922 L 388.40039 992.44922 z M 368.45312 997.43164 L 368.45312 1001.7617 L 372.71875 1001.7617 L 372.71875 997.43164 L 368.45312 997.43164 z M 373.43945 997.43164 L 373.43945 1001.7617 L 377.70117 1001.7617 L 377.70117 997.43164 L 373.43945 997.43164 z M 383.41992 997.43164 L 383.41992 1001.7617 L 387.70703 1001.7617 L 387.70703 997.43164 L 383.41992 997.43164 z M 388.40039 997.43164 L 388.40039 1001.7617 L 392.79297 1001.7617 L 392.79297 997.43164 L 388.40039 997.43164 z M 368.45312 1002.457 L 368.45312 1006.7441 L 372.71875 1006.7441 L 372.71875 1002.457 L 368.45312 1002.457 z M 373.43945 1002.457 L 373.43945 1006.7441 L 377.70117 1006.7441 L 377.70117 1002.457 L 373.43945 1002.457 z M 378.39648 1002.457 L 378.39648 1006.7441 L 382.72461 1006.7441 L 382.72461 1002.457 L 378.39648 1002.457 z M 383.41992 1002.457 L 383.41992 1006.7441 L 387.70703 1006.7441 L 387.70703 1002.457 L 383.41992 1002.457 z M 388.40039 1002.457 L 388.40039 1006.7441 L 392.79297 1006.7441 L 392.79297 1002.457 L 388.40039 1002.457 z M 368.45312 1007.4375 L 368.45312 1011.7344 L 372.71875 1011.7344 L 372.71875 1007.4375 L 368.45312 1007.4375 z M 373.43945 1007.4375 L 373.43945 1011.7344 L 377.70117 1011.7344 L 377.70117 1007.4375 L 373.43945 1007.4375 z M 378.39648 1007.4375 L 378.39648 1011.7344 L 382.72461 1011.7344 L 382.72461 1007.4375 L 378.39648 1007.4375 z M 383.41992 1007.4375 L 383.41992 1011.7344 L 387.70703 1011.7344 L 387.70703 1007.4375 L 383.41992 1007.4375 z M 388.40039 1007.4375 L 388.40039 1011.7344 L 392.79297 1011.7344 L 392.79297 1007.4375 L 388.40039 1007.4375 z "
       id="rect4096-6-9" />
    <rect
       style="opacity:1;fill:#ffffff;fill-opacity:1"
       id="rect4313-3-8"
       width="4.2512069"
       height="4.2940707"
       x="373.42487"
       y="992.46417" />
    <rect
       style="opacity:1;fill:#ffffff;fill-opacity:1"
       id="rect4555-6-8-5"
       width="11.182151"
       height="11.182151"
       x="429.17456"
       y="987.03674" />
    <circle
       style="opacity:1;fill:#ffffff;fill-opacity:1"
       id="path3903-8-4-8-6-4-6"
       cx="370.5625"
       cy="989.60907"
       r="2.2756383" />
    <path
       style="opacity:1;fill:#ffffff;fill-opacity:1"
       d="m 399.55339,962.517 0,8.74219 8.73633,0 0,-8.74219 -8.73633,0 z m 9.98633,0 0,8.74219 8.76172,0 0,-8.74219 -8.76172,0 z m 10.01172,0 0,8.74219 4.41211,0 0,-8.74219 -4.41211,0 z m -19.99805,9.99219 0,8.76171 8.73633,0 0,-8.76171 -8.73633,0 z m 9.98633,0 0,8.76171 8.76172,0 0,-8.76171 -8.76172,0 z m 10.01172,0 0,8.76171 4.41211,0 0,-8.76171 -4.41211,0 z m -19.99805,10.01171 0,4.41016 8.73633,0 0,-4.41016 -8.73633,0 z m 9.98633,0 0,4.41016 8.76172,0 0,-4.41016 -8.76172,0 z"
       id="rect4357-3"
       inkscape:connector-curvature="0" />
    <circle
       style="opacity:1;fill:#ff6600;fill-opacity:1"
       id="path3903-8-4-8-6-7-8"
       cx="421.59763"
       cy="984.48346"
       r="2.5989733" />
    <path
       inkscape:connector-curvature="0"
       style="opacity:1;fill:#ff6600;fill-opacity:1"
       d="m 410.86082,990.77169 a 9.9710631,9.9710631 0 0 0 -8.59824,9.86381 9.9710631,9.9710631 0 0 0 9.97073,9.9713 9.9710631,9.9710631 0 0 0 6.12423,-2.1167 l -2.40231,-2.4024 a 6.5825978,6.5825978 0 0 1 -3.6879,1.1374 6.5825978,6.5825978 0 0 1 -6.58234,-6.583 6.5825978,6.5825978 0 0 1 5.17583,-6.42188 l 0,-3.44853 z m 2.90233,0.0182 0,3.44913 a 6.5825978,6.5825978 0 0 1 5.08713,6.40308 6.5825978,6.5825978 0 0 1 -0.91013,3.3258 l 2.42174,2.4212 a 9.9710631,9.9710631 0 0 0 1.84275,-5.7536 9.9710631,9.9710631 0 0 0 -8.44149,-9.84561 z"
       id="path3903-8-4-4-0-9-5" />
    <circle
       style="opacity:1;fill:#ff9955;fill-opacity:1"
       id="path3903-8-6-2-6"
       cx="412.32193"
       cy="1000.6451"
       r="4.7628736" />
    <circle
       style="opacity:1;fill:#ffffff;fill-opacity:1"
       id="path3903-8-4-8-6-1"
       cx="412.34607"
       cy="1000.6392"
       r="2.8497522" />
  </g>
</svg>
